<?xml version="1.0" encoding="UTF-8"?>
<svg width="24px" height="21px" viewBox="0 0 24 21" xmlns="http://www.w3.org/2000/svg" xmlns:xlink="http://www.w3.org/1999/xlink" version="1.1">
 <!-- Generated by Pixelmator Pro 1.6.4 -->
 <defs>
  <linearGradient id="linear-gradient" gradientUnits="userSpaceOnUse" x1="12.119" y1="20.993" x2="12.119" y2="2.99">
   <stop offset="0" stop-color="#ff2719" stop-opacity="1"/>
   <stop offset="1" stop-color="#fd5163" stop-opacity="1"/>
  </linearGradient>
 </defs>
 <path id="Pfad" d="M15 4 L16.22 4 C16.709 4 17.167 4.238 17.448 4.639 18.31 5.867 21 10 21 10 21 10 22.392 11.209 23 11.731 23.841 12.454 24 13.031 24 14 L24 16.5 C24 17.328 23.328 18 22.5 18 L21 18 C21 19.656 19.656 21 18 21 16.344 21 15 19.656 15 18 L9 18 C9 19.656 7.656 21 6 21 4.344 21 3 19.656 3 18 L1 18 C0.449 18 0 17.553 0 17 L0 5 C0 4.448 0.448 4 1 4 L13 4 13 3 15 3 Z M6.069 16.748 C6.759 16.748 7.32 17.308 7.32 17.999 7.32 18.689 6.759 19.25 6.069 19.25 5.378 19.25 4.818 18.689 4.818 17.999 4.818 17.308 5.378 16.748 6.069 16.748 Z M18.069 16.748 C18.759 16.748 19.32 17.308 19.32 17.999 19.32 18.689 18.759 19.25 18.069 19.25 17.378 19.25 16.818 18.689 16.818 17.999 16.818 17.308 17.378 16.748 18.069 16.748 Z M12 6 L2 6 2 16 3.765 16 C4.314 15.386 5.112 15 6 15 6.888 15 7.686 15.386 8.235 16 L15.765 16 C16.314 15.386 17.112 15 18 15 18.888 15 19.686 15.386 20.235 16 L22 16 22 14 C22 13.509 22 13.509 21.696 13.248 L20.253 12 12 12 Z M8 7 L8 9 10 9 10 11 8 11 8 13 6 13 6 11 4 11 4 9 6 9 6 7 Z M15.958 6 L14 6 14 10 18.611 10 C17.777 8.726 16.557 6.871 15.958 6 Z" fill-opacity="1" fill="url(#linear-gradient)" stroke="none"/>
</svg>
